<?xml version="1.0" encoding="UTF-8" standalone="no"?>
<!-- Generator: Adobe Illustrator 24.1.2, SVG Export Plug-In . SVG Version: 6.00 Build 0)  -->

<svg
   version="1.1"
   x="0px"
   y="0px"
   viewBox="0 0 271.6 358"
   style="enable-background:new 0 0 271.6 358;"
   xml:space="preserve"
   id="svg389"
   sodipodi:docname="cosmos_alternate_grey.svg"
   inkscape:version="1.1 (c4e8f9ed74, 2021-05-24)"
   xmlns:inkscape="http://www.inkscape.org/namespaces/inkscape"
   xmlns:sodipodi="http://sodipodi.sourceforge.net/DTD/sodipodi-0.dtd"
   xmlns="http://www.w3.org/2000/svg"
   xmlns:svg="http://www.w3.org/2000/svg"><defs
   id="defs393" /><sodipodi:namedview
   id="namedview391"
   pagecolor="#ffffff"
   bordercolor="#666666"
   borderopacity="1.0"
   inkscape:pageshadow="2"
   inkscape:pageopacity="0.0"
   inkscape:pagecheckerboard="0"
   showgrid="false"
   inkscape:zoom="2.1787709"
   inkscape:cx="135.85641"
   inkscape:cy="254.27179"
   inkscape:window-width="1920"
   inkscape:window-height="1015"
   inkscape:window-x="0"
   inkscape:window-y="1080"
   inkscape:window-maximized="1"
   inkscape:current-layer="svg389" />
<style
   type="text/css"
   id="style218">
	.st0{display:none;}
	.st1{display:inline;stroke:#F1F2F2;stroke-miterlimit:10;}
	.st2{fill:none;stroke:#646466;stroke-miterlimit:10;enable-background:new    ;}
	.st3{fill:#646466;stroke:#646466;stroke-width:4;enable-background:new    ;}
	.st4{fill:#646466;stroke:#646466;stroke-width:2;enable-background:new    ;}
	.st5{fill:#646466;stroke:#646466;stroke-miterlimit:10;}
	.st6{fill:#646466;stroke:#646466;stroke-miterlimit:10;enable-background:new    ;}
	.st7{fill:#646466;stroke:#646466;enable-background:new    ;}
	.st8{fill:none;}
	.st9{fill:#646466;}
	.st10{font-family:'Simplifica';}
	.st11{font-size:115px;}
	.st12{enable-background:new    ;}
	.st13{fill:url(#SVGID_1_);}
	.st14{fill:url(#SVGID_2_);}
	.st15{fill:url(#SVGID_3_);}
	.st16{fill:url(#SVGID_4_);}
	.st17{fill:url(#SVGID_5_);}
	.st18{fill:url(#SVGID_6_);}
	.st19{fill:none;stroke:#646466;stroke-miterlimit:10;}
</style>
<g
   id="Layer_2_1_"
   class="st0">
	<rect
   x="-327.7"
   y="-100"
   class="st1"
   width="1009"
   height="697"
   id="rect220" />
</g>
<g
   id="Layer_1">
	<g
   id="Layer_2">
	</g>
	<circle
   class="st2"
   cx="133.4"
   cy="134.8"
   r="132.7"
   id="circle224" />
	<path
   class="st3"
   d="M113.3,120.3c0.2,0,0.3,0,0.5,0"
   id="path226" />
	<path
   class="st4"
   d="M112.4,119c0.2,0,0.3,0,0.5,0"
   id="path228" />
	<g
   id="g250">
		<path
   class="st5"
   d="M148,202.3c-0.4-1.9,1-2.2,1.9-3.5c0.8-1.2,0.8-1.6,0.9-3c0.3-3.9,0.7-5.5-1.7-8.6c-1.7-2.2-3.7-4.2-5.6-6.6    c-1.2-1.5-2.7-4.5-4.7-4.6c-0.4,1.7-0.6,3.3-0.8,5c-1.3-0.1-2.7-0.6-4.1-0.7c-0.4-1-0.4-2.2-0.6-3.2c-0.4-1.8,0.6-1.2-1.6-1.7    c-2.6-0.6-3.5-0.2-5.1,1.4c-0.8,0.8-0.2,1-1.7,1.4c-1.1,0.3-1.6-0.1-2.7,0.4c-2.4,1.1-3.6,3.6-5.7,4.9c-1.5,0.9-5.9,1.8-6.6,3.8    c-0.4,1.1,0.3,1.9,0.5,2.8c0.1,0.5-0.2,1.2,0,1.6c0.3,0.8,1.2,0.9,1.4,1.3c0.7,1.6-0.4,13,3.3,9.9c0.8-0.6,0.3-1.8,1-2.4    c0.5-0.5,2.2-0.9,2.7-1c1.7-0.5,3.6-0.9,5.4-1.5c1.9-0.7,4.1-1.6,6.3-0.3c1.6,1,2.4,3.1,3.7,4.2c0.7,0.5,1.8,0.6,2.5,1.4    c0.4,0.4,1.1,2.5,1.3,2.6c1.5,1,3.1-0.7,4.7-0.5c2.1,0.3,2.2,2,4.2,0c1-1,1.6-2.8,1-4"
   id="path230" />
		<path
   class="st5"
   d="M145.9,210c0.1-0.5,0-1.3,0-1.8c-2.4-0.5-3.8,1.5-3.2,3.5c0.9,3.2,3.5,1.9,3.5-0.9"
   id="path232" />
		<path
   class="st5"
   d="M173,209.1c-1.8-0.5-5.4,3.9-6.3,5.4c-0.5,0.9-1.7,3,0.6,3c1.5,0,1.9-2.5,2.6-3.5c0.7-1.1,1.9-2.5,3.2-3.1    c2.2-1,1.8,0.3,2.4-2.3c0.4-1.8,1.3-3.4-0.2-4.9c-0.9-0.9-3.2-1.4-4.4-1.2c2.3,1.7,1.6,4.6,1.6,7.2"
   id="path234" />
		<path
   class="st5"
   d="M141.6,171.7c1.1-0.1,2.4-0.4,3.3,0c1,0.4,1.6,1.8,2.7,2.1c0.2-1-5.4-7-6.5-7.5c-4.1-1.6-3,8.1,0,6.6"
   id="path236" />
		<path
   class="st5"
   d="M163.4,175.9c-2.4,0.2-4.2-1.7-5.8-3c-1.3-1-3.4-2.3-4.2-3.7c1.8-0.4,4.9,2.3,6.5,3.1c1,0.5,5.5,3,2.6,4.2"
   id="path238" />
		<path
   class="st5"
   d="M168.4,187.2c-1.3,0.4-3.5,1.7-4.1,0c1.3-0.5,2.5,0,3.7,0.4"
   id="path240" />
		<path
   class="st5"
   d="M170.9,185.7c1.1-2.1,0.4-3.4-2-3.7c-0.8,2.4,1.6,2.4,2,4.4"
   id="path242" />
		<path
   class="st5"
   d="M177.2,181c-0.7,0.8-1.8,2.2-2.1,3.2c1.8,0.5,2.5-1.9,1.4-2.5"
   id="path244" />
		<path
   class="st5"
   d="M173.2,175.2c-1.6-0.1-3.1,0.4-4.7,0.2c0.5-0.2,1.6-0.3,2.3-0.2"
   id="path246" />
		<path
   class="st5"
   d="M179.5,173.3c-2-0.2-2.8-2-2.6-3.9c-0.1,1.4,0.8,3.3,2.1,3.9"
   id="path248" />
	</g>
	<g
   id="g256">
		<path
   class="st5"
   d="M210.1,178.3c-1.7,4-4.5,3.7-2.8,8c0.9,2.2,2.6,3.7,0.7,6.4c-1.6,2.2-5.6,2-6.2,5.4c-0.6,3.2,1.7,2.7-0.3,6.1    c-1.2,2-2.3,3.7-3.4,5.9c-1.3,2.5-2.8,5.2-5.5,6.1c-1.6,0.5-8.2,0.7-9-0.4c-0.7-0.9,0.5-3.6,0.1-4.7c-0.9-2.2-2.5-2.8-4.7-3.6    c-0.1-1.8-0.1-3.6-0.1-5.3c-0.1-1.7-1.3-4.4-1.3-5.4c-0.1-3.2,1.6-3,2.2-5.4c0.9-3.4-2.5-10.8-6.2-10.6c0.1-2.1,0.4-8.6-0.9-10.4    c-2-2.6-12.6-1.5-15.7-1.2c-5.9,0.5-9,0.2-11.7-5.2c-2-3.9-2.1-7.8-1.7-12s1.1-7.6,5-9.9c1.3-0.8,4.1-1,5.4-2.4    c1.3-1.4,0.7-3.6,1.7-5.2c1.1-1.7,2.3-1.9,4.2-2.3c1.3-0.3,2.6,0.3,3.9-0.2c1.3-0.4,1.6-1.7,2.8-2.1c3.8-1.3,8.5-1.2,10.1,2.2    c0.9,1.9-0.4,3.2,1.6,4.9c1.4,1.2,3.5,1.3,5.4,1c1.9-0.4,2.7-1.5,5.4-1.6c1.9,0,3.7,0.2,5.6,0.4c5.6,0.6,5.7,1.3,6.5,6.2    c0.9,5.3,5.4,8.4,7.4,13.6c1.6,4.1,1.3,6.7,6.6,6.3c2-0.1,7.1-2.1,5.8,3.1c-0.7,2.9-6.6,4.5-8.4,7.1c-1.6,2.2-3.4,5.6-4.1,8.1"
   id="path252" />
		<path
   class="st5"
   d="M214.8,205.6c2.5-3.2,7-11.6,5.1-15.2c-0.7,1.7-2.3,1.9-3.5,3.2c-1.7,1.8-1,1.2-1.9,3.9    c-1.2,3.3-4.9,7,1.2,7.8"
   id="path254" />
	</g>
	<g
   id="g262">
		<path
   class="st5"
   d="M85.6,231.4c0.2-1.4-0.4-1.4-0.7-2.4c-0.3-1-0.3-1.8-0.3-2.8c0-3.3,0.5-6.7,1.2-9.8c0.8-3.7,0.1-8.1,1.5-11.6    c0.6-1.4,1.4-1.7,0.7-3.3c-0.5-1.2-1.9-2.3-2.8-3.2c-1-1-1.2-2.2-2-3.3c-0.9-1.2-2.8-1.5-3.6-3c-0.8-1.4-1.2-3.2-2-4.7    c-0.5-1-1.1-1.9-1-3.1c0,0,0.4-1.6,0.5-1.9c0.4-1.1,1.2-1.3,1.8-2.3c0.3-0.5,0.4-1.5,0.6-2.1c0.3-0.6,1.1-1.3,1.3-1.9    c0.3-0.7,0.1-1.7,0.2-2.5c0.2-5.4,8.1-5.1,12.1-4.9c2.9,0.1,4.2-0.4,6,1.6c0.5,0.5,0.2,0.8,0.8,1.4c0.8,0.7,2.7,1.4,3.7,1.9    c1.5,0.7,3.7,0.6,4.9,1.8c0.8,0.9,0.5,1.2,0.7,2.5c0.4,2.3,0.9,2.3,2.8,3.5c1.2,0.8,2.3,1.9,3.8,2.1c1.4,0.2,0.6,0.1,2-0.3    c1.7-0.5,3-1.1,4.8-0.4c0.5,0.2,1.9,1.2,2.4,1.8c0.8,1,0.4,1.6,0.1,2.9c-0.6,2.3-1.8,4.2-1.9,6.5c-0.1,2.8-2,5.4-3.6,7.7    c-1,1.5-2.9,2.1-4.5,2.5c-2.6,0.6-2.2,1-3.5,3.3c-1,1.7-0.9,3.5-1.7,5.3c-1.2,2.7-3.9,3.6-6,5.4c-1.3,1.1-1.4,3-2.5,3.8    c-1,0.8-2.4,0.6-3.5,1c-1.5,0.5-0.7,0.3-1.4,1.4c-0.5,0.8-0.3,1.3-1.4,1.8c-1.2,0.5-1.7-0.5-1.7,1.3c0,0.9,0.9,1.5,0.7,2.6    c-0.2,1.5-1.1,1.1-1.8,2.2c-0.9,1.3,0,1.3,0.3,2.4c0.2,0.9,0.1,2,0,2.9c-1.4,0.4-1.7,1.7-2,2.9c-0.7,3-0.2,3.7,1.9,5.4    c1.6,1.3,1.8,2.6-0.7,2.8c-2.1,0.1-4.2,0.2-5.7-1.5c-2-2.3-1-6.5-2.4-9.2c-0.8-1.6-1.2-1.7,0.1-3.2c1.1-1.3,1.5-1.6,1.9-3"
   id="path258" />
		<path
   class="st5"
   d="M100.6,244.2c-2,0.4-4.5-1.8-1.1-2.3c2.6-0.4,1.8,0.9,0.9,2.5"
   id="path260" />
	</g>
	<path
   class="st6"
   d="M148.6,85.2c-2.5,1.1-5.1-0.3-6.8,2.6c-0.8,1.5-0.7,4.8-1.9,6c-1.4,1.4-6,0.3-7.2-1.1c-0.6-0.7-1-2.5-1.5-3.3   c-0.7-1.2-2.9-3.4-2.8-4.9c0.2-2.1,3.1-2.6,2.5-5.1c-0.1-0.4-1.4-2.2-1.7-2.7c-1.1-1.9-1.9-3.5-2.7-5.4c-1.6-3.5-3.6-4.8-7.2-5.6   c-2.5-0.6-7.1,0.3-7-3c0-0.1,0-0.1,0.1-0.2c3.4-1.7-3.1-2.8-3.3-3.8c-0.2-1.7,3.3-1.4,4.4-1.8c1.5-0.6,2.3-1.6,3.5-2.7   c-0.6-1.2-2.4-1.7-2.6-2.9c-0.2-1.5,2.6-2.9,3.6-3.5c2-1.2,3.5-1.8,5.8-2.3c2.2-0.5,3.1-2.4,4.9-3c0.1,1.3,1.4,1.9,2.6,1.8   c-0.1-0.7,0.1-1.4-0.2-2c1.3-0.2,4.5,1.5,5.1,1.1c0.5-0.3,0.9-2.8,1.2-3.4c-0.9-0.3-1.6-0.9-1.6-1.9c1.6-0.2,3.5,0.1,5,0   c2.1-0.2,1.7-1,3.5-2.1c2.6-1.7,8.7-0.7,11.8-0.5c-0.4,0.7-1.2,1.2-1.9,1.6c0.4,0,1.5,0.4,2.1,0.3c0,2.3,2.7,1.1,3.6,2.6   c1.3,2.2-2.4,2.3-3.3,4c1.3,0.3,2.5-1,3.7-0.6s0.9,1.9,2.4,2.2c2.1,0.5,5.3-1.3,7.4-1.6c0.1,1.2,0.4,3-0.4,4c-1.3,1.4-3.8,0-5,1.2   c2.6,2.5-0.5,3.4-1.4,5.8c-0.4,1.2-0.7,2.7-0.4,4c0.4,1.4,1.7,2.1,1.6,3.5c-0.7-0.1-1.6,0.1-2.3,0.1c-0.3,2.2,1.4,3.5,1.6,5.3   c0.4,2.5-0.4,1.9-2.1,2.6c-0.8,0.3-0.7-0.6-1.5,0.2c-0.6,0.7-0.4,1.6-0.2,2.4c0.4,1.3,2.3,2.3,1.4,4.2c-0.4,0.8-1.4,0.7-1.9,1.2   c-0.5,0.6,0,1.3-0.7,1.8c-1.5,1.2-3.4,1-5.2,1.2c-2.1,0.2-2.1,0.4-3.4,1.9c-0.9,1.1-2.1,1.7-2.9,2.7"
   id="path264" />
	<g
   id="g294">
		<path
   class="st5"
   d="M131,125.5c-0.5-1.5-2.4-0.9-3.7-1c-0.1-0.9-0.1-3.7,0.6-4.4c1.5-1.7,2.4-0.3,3.1,0.7    c0.6,0.8,2.5,3.2,2.5,4.1c0.1,2-1.8,1.4-2.8,0.4"
   id="path266" />
		<g
   id="g292">
			<path
   class="st5"
   d="M107.5,171c0.4-1.9-1.8-0.7-2.6-0.7c-1.5-0.1-1.6-1.4-2.8-1.6c0-0.7,0.3-1.4,0.7-1.9h-0.1     c-0.5-1.6-0.1-2.6-1.6-3.7c-1.3-1-3.4-0.3-4.3-1.3c2.2-1.2,2.6-6.2-0.7-5c-1.4,0.5-2,1.4-3.6,1.3c-2.4-0.2-3.3-1.1-4.4-3.2     c-0.6-1.2-1.6-2.7-1.1-4.2c0.6-2,4.5-3,6.4-3.3c2.2-0.3,5.3-0.1,6.8,1.2c1.1,0.9,1.7,2.7,2.8,3.6c2.4,1.9,2-0.7,1.7-2     c-0.4-1.9-0.3-4,0.7-5.6c1.2-2,4-3.2,4.9-5.3c0.7-1.7-0.1-3.4,1.4-4.8c0.6-0.6,1.4-0.7,1.9-1.4c0.4-0.6,0.3-1.3,0.8-1.8     c0.8-0.8,2.2-1.2,3.2-2c1.4-1.1,1.8-1.2,3.4-1c1.4,0.2,3.8,0.1,4.7-1.7c1.2-2.2-1.3-2.1-2.8-2.2c0-0.9,0.3-2.4-0.3-3.1     c-0.7-0.9-2.6-0.9-3.6-1.3c0.3-0.6,5.2-1,6.3-1.3c1.7-0.4,5.1-1.1,5.5-3.2c0.3-1.6-1.1-2-1.9-2.9c-1.2-1.3-3.1-3.6-3.9-5.2     c-1.4-2.9-0.7-7-4.9-6.6c-0.1,1.4-0.2,3.9-2.3,3.6c-0.7-2.1-2.2-4.8-3.9-6.3c-2.2-1.8-4.5-1.6-7.3-0.7c0.4,3,2.6,5.8,2.3,9.1     c-0.2,2.1-2.2,3.3-2.1,5.7c0.1,1.2,1.8,6-0.9,5.2c-0.9-0.3-2.2-2.9-2.9-4c-0.6-1-1.2-2.6-2-3.2c-1-0.8-2.8-0.8-3.9-1     c-2.7-0.5-4.5-2.3-5.3-4.7c-0.6-1.6-0.6-2.5-0.3-4.5c0.4-2.8,0.9-4.4,2.7-6.3c0.8-0.9,2-1.1,2.3-2.4c0.2-0.9-0.4-1.8,0-2.7     c1,1.1,3.1,0.6,4.2-0.2c0.3-0.2,0.9-1.2,1.3-1.6c0.7-0.7,1.5-1,1.9-2c0.7-1.6-0.3-4.7-1-6.3c-0.4-0.9-1.8-2.4-2.9-1.4     c-0.5,0.5-0.3,2-0.3,2.6c0,1.3,0.6,4.2-1.8,3.5c-0.9-0.3-1.6-1.9-2.4-2.4c-1.9-1.3-1.3-0.8-2-2.7c-0.4-1.1-1.1-1.7-1.4-2.8     c-0.2-0.8,0-2.9-0.7-3.4c-1.8-1.2-2.4,2.4-2.1,3.3c0.3,1.1,1.6,1,1.1,2.8c-0.4,1.4-0.7,1.1-1.9,2c-2.3,1.9-1.3,3.2,0.7,4.1     l-0.7,0.5c-1.8-0.9-4.3-0.2-6.1-1.2c-1.2-0.6-2.5-2.2-4.1-0.4c-0.7,0.8-0.3,2.6-0.4,3.7c-1.5-1.6-3.3-0.9-5.2-1.2     c-1.5-0.2-1-0.1-1.7-1.1c-0.5-0.7-0.3-1.5-1.4-1.7c-0.1-1.3-0.7-2.3-2-2.8c-1.4-0.4-2.8-0.8-3.9-1c-1.8-0.4-3.8-0.4-5.5-1.1     c-0.8-0.3-0.3-0.9-1.6-0.9c-0.9,0-1.3,0.8-2.2,1.2c-0.9,0.4-2.5,0.1-3.2,0.8s-0.2,1.3-1.1,1.7c-1.1,0.5-1.6-0.6-2.3-0.8     c-0.7-0.2-1.6,0-2.4-0.1c-0.5-0.1-2.2-0.3-2.6-0.6c-0.6-0.4-0.6-1.6-1.4-1.9c-1.2-0.4-2.2,1-3.7,0.1c-1-0.6-1.6-1.5-2.9-1.9     c-0.8-0.3-1.3-0.5-2.2-0.6c-0.7-0.1-1.6,0-2.3-0.1c-0.9-0.1-1.1-0.5-1.7-0.7c-2.2-0.7-2.4,0.4-4,1.5c-1.3,0.8-2.2,1.1-3.4,2.4     c-0.9,1-1.2,1.3-2.3,1.9c-0.2,0.1-1.8,1-1.8,1.1c-0.5,1.3,2.5,4,3.4,4.8c2.6,2.3,0.6,2-1.5,2.3c-1.5,0.2-3.2,0.4-4.6,0.9     c-0.2,1.4,1.1,3.4,2.3,4.1c1.4,0.8,1.2,0,2.1-0.3c0.7-0.2,1.4-0.3,2.4-0.4c-0.1,0.7-0.3,1.7-0.6,2.5c-0.6,1.4-1,1.2-2.1,2     c-1.1,0.7-1.6,0.9-1.2,2.8c0.3,1.5,1.9,1.6,2.3,3c0.2-0.4,0.5-0.7,0.6-1.3c1.8-0.6,1.6,2.1,2,3.1c0.8,0.3,1.6,0.5,2.4,0.7     c0.8,0.3,1.3-0.3,1.6,0.7c-1.1,2.3-4.8,3.4-6.1,6c1-1.1,1.8-1.2,3.2-1.8c1.6-0.6,2.8-1.6,4.1-2.6c1.8-1.4,2.5-2.6,3.4-4.6     c0.5-1,0.9-2.3,2.1-2.9c-0.7,0.9-1.8,3.3,0,3.9c1.4,0.5,2.1-1.6,2.6-2.4c1.2-1.7,1.9-0.7,3.9,0c1.2,0.4,2.4,0.7,3.5,1.4     c0.5,0.4,1.1,1.3,1.6,1.6c1.7,0.9,4.2,0,5.8,0.9c1.6,1,3.2,4.4,3.9,6.1c1,2.8,1.4,4.8,3.6,7c1.2,1.2,3.1,2.3,3.3,4.1     c0.1,1-0.4,1.5-0.5,2.3c-0.4,1.8-0.3,3.9-0.2,5.8c0.1,2.7,0.8,5.2,1.7,7.7c1,2.7,2.1,3.6,4,5.6c1.7,1.7,2.3,3.6,3.6,5.7     c0.9,1.4,3.4,6.3,5.2,5.7c0.5-1.9-2.3-3.5-3.5-4.9c-1.1-1.3-2.8-3.4-1.1-5.1c2-2,2.5,1.8,3.1,3.2c1.2,2.9,3.2,5.4,5.4,7.7     c1.8,1.9,2.6,4.8,5.1,6.3c2.6,1.5,4.4,0.8,7,1.4c1.9,0.4,4.4,2.2,6.2,3.2c1.4,0.8,1.9,2,3.1,2.9c0.8,0.6,1.3,0.5,2.6,0.7     c1.8,0.2,3.8-0.3,5.7,0.2"
   id="path268" />
			<path
   class="st5"
   d="M110.6,159.4c-2.2,0-3-0.3-4.9-1.2c-1.8-0.9-3.8-0.8-5.6-1.6c1.1-2.2,5.6-0.9,7.3-0.1     c0.6,0.3,2.9,0.8,3.2,1.2c0.7,0.9,0.4,2-0.9,2.1"
   id="path270" />
			<path
   class="st5"
   d="M115.6,160.1c-0.9,0.7-2.8,0.7-4,0.2c1.3-1.2,3.8-0.9,5.6-0.8c0.1,1.2-1,1.4-2.1,1.1"
   id="path272" />
			<path
   class="st5"
   d="M119.8,96c-0.6,1.6-0.6,2-2.4,2.1c-2.8,0.2-2.4-2.1-3.9-3.5c-1.3-1.3-2.1-0.3-3.7-0.9     c-1.3-0.5-1.9-1.8-2.8-2.6c1.9-0.7,5.2,0.4,3.7-3.1c2.6-0.9,2.5-2.8,2.3-5.3c-1,0-2.5,0.1-3.4-0.4c-1.2-0.7-1-2.4-1.9-3.4     c-1.3-1.3-5-0.9-7-1.4c-2.5-0.7-4.8-3-5.7-5.5c-1.1-2.9,1.2-3.3,3.2-4.3c3.4-1.5,8.6-4.2,10.7,0.4c0.9,1.9,1,4.8,3.3,5.7     c1,0.4,3.6-0.5,4.4,0.1c1.1,0.8,0.2,1.9,0.7,2.8c0.4,0.8,1.1,0.9,1.4,1.9c0.3,0.8-0.3,2,0,2.7c0.6,1.3,1.6,0.9,2.6,1.8     c0.8,0.8,0.9,1.5,1.3,2.4c0.4,1,1.7,3.8,0.6,5c-1.7,1.8-3-2.7-4.7-2.8c-0.3,1.6,1.6,3.4,2,4.9c0.4,1.2,0.6,2.9,0.5,4.2     c-0.3,0.1-0.6,0.1-0.9,0"
   id="path274" />
			<path
   class="st5"
   d="M79.3,80.1c-2.8,0.9-3,2.2-6.6,1.4c-2-0.5-4.4-2.2-5.4-4.1c0.8-0.1,1.7,0,2.5-0.1c0-2-2.8-3.4-3.6-5     c-1.3-2.5-0.1-3.2,1.2-5.2c4.2-6.3-8.3-2-8.3-3.3c-0.1,1.5,0.5,3.9-0.1,5.3c-0.3,0.8-1.4,0.4-1.5,1.4c-0.2,1.1,0.8,1.5,1.4,2.2     c3,3.4,3.6-1.6,5.4-3.2c2.3-2,5.8-1.2,8.3-0.1c2,0.9,2.2,1.5,3.5,3.2c0.1-1.6-0.2-3.7,0.3-5.1c2.3,1.7,1.5,3.8,2.1,6.1     c0.5,1.9,1.5,1.6,3,2.8c3.9,3,0.8,4.2-2.7,4.2"
   id="path276" />
			<path
   class="st5"
   d="M87.7,72.9c0-2.2,0.2-4.2-0.6-6.1c-0.4-0.9-0.1-2.3-1.9-2.1c-1,0.1-1.3,0.8-1.6,1.7c-1,2.8,0.9,7.8,3.7,7.7     c0-0.5,0.2-1.1,0-1.6"
   id="path278" />
			<path
   class="st5"
   d="M94.3,67.3c-0.8,0.3-3.8,1.3-4.7,0.7c-1.8-1.3,0.4-2.7,1.7-3c3.6-1,4.5,1.4,1.8,3.7"
   id="path280" />
			<path
   class="st5"
   d="M104.8,61.9c-2.1-0.2-13.4,3.5-12.8-1.4c2.4-0.7,5.4-0.5,7.9-0.5c2.6,0,4.6-0.4,4.3,2.8"
   id="path282" />
			<path
   class="st5"
   d="M105,57.4c-2.4-1.5-6.1,0.6-8.7-0.5s0.7-2.4,0.2-4.9c-1.8,0.4-2.1,0.5-3.3-0.5c-0.5-0.4-0.7-1.3-1.4-1.8     c-0.4-0.4-1.4-0.5-1.7-0.9c-0.9-1.2-0.6-2.5-0.6-4c0-1.4-0.4-2.6-0.4-3.9c2-0.1,2.6,0,3.9,1.4c1.2,1.3,1.9,3.9,3.7,4.2     c3.7-3.5-3.4-4.9-4-6.9c-0.6-2.1,6.8-5.1,8.1-2.4c3.7-1.4,2.7-5.8,7.4-3.5c1.4-2.5,6.3-2.4,7.1,0.5c2-1,6.5-1.3,7,1.4     c0.7,4.1-3.6,1.9-5.1,3.8c1,0.1,2.2,0.4,2.3,1.6c-3,1.4-4.3,3-6.4,4.7c-0.4,0.3-0.6,0.9-1.1,1.1s-1.6,0.2-2.2,0.6     c-1.1,0.7-1.9,1.5-0.4,2.8c-1.3,1-2.1,2.2-2.2,3.9c-2.9,0.1-3,0.8-2.5,3.5"
   id="path284" />
			<path
   class="st5"
   d="M85.1,60.5c-1.1-0.9-2.4,0.1-3.5-0.5c-1.8-1,0.5-2.1,1.9-2.1c1.7,0,4.7,2.1,5.8,3.5     c-1.5,0.8-3.9-0.9-4.7-1.9"
   id="path286" />
			<path
   class="st5"
   d="M77.2,60.5c-1.3,0.6-7.9,3.9-7.7,1.4c-1.1-0.4-2.2-0.1-3.3-0.6c-0.9-0.4-1.5-1.3-2.3-1.9     c-1.1-0.8-1.6-1.4-3.2-0.7c1.5-2.2,5.9-4,7.6-2.7c0.6,0.5,0.6,1.6,1.6,2.2c1.2,0.7,2.3,0.1,3.4,1.4C72.1,55.5,77,60,77,61.8"
   id="path288" />
			<path
   class="st5"
   d="M91.2,58.4c-0.9,0.5-1.9,0.3-2.7-0.3c-1.4-0.9-0.9-1-1.2-2.4c-0.4-1.5,0.6-1.9-1.4-2.4     c-0.9-0.2-1.7,0.3-2.5,0.3c-1.3,0.1-4.9-0.4-5.1-2.3c-0.2-2.5,4.1-1.7,4.8,0.1c1.1-0.5,1.7-2,3.2-1.5c0.3,2,1.6,3.2,2.4,4.8     c1.3,2.9,1.4,1.8,3.8,2.8c-0.9,1.2-2.4,0.3-3.3,1.2"
   id="path290" />
		</g>
	</g>
	<g
   id="g314">
		<g
   id="g310">
			<path
   class="st5"
   d="M220.5,104.4c-2.5,2.3-3-3-0.3-4.3c2.1-1,2.7-0.1,4.4-2c1-1.2,2.2-2.2,3.3-3.3c2.1-2.1,1.1-6.6,3.6-8.1     c0.9-0.5,3.1-0.1,4.1-0.5c1.4-0.5,2-1.5,3.7-1.4c0.3,2.2-2.6,2.3-3.9,3.5c-2,2-1.5,3-4.7,3c-0.5,1.7,0.9,2.8,0.7,4.7     c-0.1,0.8-0.9,3.7-1.5,4.2c-1,0.8-4.6,0.6-5.9,0.9c-2.9,0.8-3.4,1.3-4,3.8"
   id="path296" />
			<path
   class="st5"
   d="M233.2,84.2c0-0.7,2.8-12.9-1.4-11.4c-0.2,3.6,0,8.2,1.1,11.6"
   id="path298" />
			<path
   class="st5"
   d="M212.3,149.5c1.1-1.1,1.3-2.1,1.8-3.5c-3.2-0.1-6.8,0.8-10,0.2c-1.6-0.3-2.6-1.4-4.1-1.9     c-1.7-0.5-3.7-0.2-5.4-0.3c-0.1-0.9,0.1-1.7,0.4-2.5c-1.7-0.8-3.4-2.7-4.7-4c-1.2-1.2-2.4-3.2-3.9-4c-5.4-2.7-0.5,4.7,0.7,6.3     c3.3,4.6,9.4,4.6,14.4,6.6c2.6,1,4.2,2.2,7.1,2.2c1.2,0,2.9-0.4,3.7,0.5"
   id="path300" />
			<path
   class="st5"
   d="M216.3,140.6c-2.7-0.1-2.3-4.9-4.3-5.7c-1.8-0.7-5.1,4.8-3.8,6.6c1,1.3,5.8-0.4,7.9-0.2     c1.3,0.1,3.3-0.2,4.5,0.2c1.7,0.5,1.1,1.4,2.8,2.1c2.6-2.9,4.5,3.5,7.4,2.7c0.1-1.5,0.4-3.5-0.3-4.9c-1.3-2.8-2.9-1.1-5.1-0.4     c-2.8,0.8-1.6-1-3.9-1.6c-1.3-0.4-2.4,0.9-3.8,0.6c-0.1-1.2,0-2.4-0.1-3.6c-1.4,0.8-1.8,2.7-2.3,4.1c-1.1,0-2.2,0.4-2.8,1.4"
   id="path302" />
			<path
   class="st5"
   d="M206.7,135.9c0,2.2-2.3,4.6-4.2,5.6c-3.9,2.2-2.6-1.7-5.3-3.3c0.8-2.4,3.9-5.3,6.2-6.1     c3.6-1.2,3.5,1.7,2.9,4.3"
   id="path304" />
			<path
   class="st5"
   d="M160.4,139c0.1,0.7-0.1,1.1,0.7,1.1c0.2-2.1,1.1-4.7,0.3-7c-0.3-0.9-2.3-6.2-2.8-6.1c-1.5,0.4,0.7,5.5,1,6.6     c0.6,1.7-0.3,5.3,1.1,6.6"
   id="path306" />
			<path
   class="st5"
   d="M211.9,129.6c1.3,0.7,2.3,1.9,3.5,2.6c0.3-2,0.6-3.8-2-4c0.2-3.3-2.2-1.6-3.6-2.9c-1.1-1,0-4.4-2.2-3     c-1.3,0.9,2.3,8.1,4.6,7.8"
   id="path308" />
		</g>
		<path
   class="st5"
   d="M159.4,118.5c-0.2-2.6-1.6-3.3-3.4-4.8c-0.9-0.8-2-1.1-3-1.4c-1.6-0.3-3.2-0.8-4.7-1.1    c-1.4-0.2-2.6-0.7-3.8-1.2c-1.3-0.5-2.4-0.3-3.7-1c-1.5-0.9-2.7-1.5-4.3-2.1c-0.9-0.3-1.7-1.2-2.6-1.4c-0.2,1.2,0.9,2.9,1.6,3.8    c0.5,0.7,1.7,2.1,2.5,2.3s1.9-0.1,2.7,0c1.3,0.1,2.2,0.8,3.4,1.4c1.2,0.6,2,0.2,2.1,1.6c0.1,1.5-0.7,1.9-1.6,2.7    c-1.6,1.4-4.1,2.8-6.1,3.7c-1.7,0.7-3.5,1.3-5.2,1.9c-1.1,0.4-3.2,0.3-3.7,1.4c-0.1-0.8,0-1.6-0.1-2.3c-0.2-1.9-1.3-2.9-2.5-4.4    c-1.9-2.4-2.6-5.5-4.4-7.8c-0.6-0.9-1-1.9-1.6-2.8c-0.3-0.5-0.8-0.7-0.9-1.3c-0.3-1.2,0.9-3.1,1.4-4.2c0.3-0.7,2.1-6.2,0-4.8    c-1,0.7-0.7,2.5-2.1,3c-2.1,0.8-0.6-1.3-1.1-2.1c-0.6-0.8-3.4,0.2-4.3-0.1c-1.2-0.5-0.9-1.5-1.1-2.5c-0.2-1.2-0.8-1.4,0-2.4    c1.7-1.9,4.3-1.6,6.6-1.6c1.6,0,3.4-0.5,4.8,0.3c0.7-1.1,1.8-2.5,3.1-2.8c1-0.2,2.4-0.3,3.4-0.2c0.7,0.1,2.5,0.5,3.1,0.9    c0.7,0.5,0.8,1.3,1.2,2c0.6,1.1,1.6,1.9,2.1,3c0.4,0.8,1.1,3.1,2.3,2.9c1.4-0.2,0.8-3.5,0.5-4.2c-0.5-1.1-2.4-3.4-0.4-3.7    l-2.4-1.1c-0.1-2.3,1.6-1.1,2.2-2.7c0.9-2.3,0.7-1-0.7-2.6c-1.8-2.1-4-2.2-6.3-3.1c-1.1-4.6,10.8-3,13.6-3.1    c1.4-3.3,3.2-6.1,3.9-9.7c0.5-3.1-0.6-7.7,0.7-10c1.1-2,2.7-1.9,3.3-4.6c0.3-1.6,0.1-3.9,0-5.5c-0.2-3.5-0.2-6.2-2.7-8.8    c1.3-0.1,2.1,0,3.1,0.6c-0.1-3.7-0.2-5.8,1.8-8.7c2.7-3.9,3.1-2.2,3.1,2.1c0,1-0.5,4.1,0,4.9c1.3,2.1,2.1,0.9,2.5-1.1    c0.7-3.6-1.4-5.4,1-9.2c0.7,1,0.9,2.4,1.4,3.6c0.5-1.2,1.6-2.2,3.1-2c0.2,0.7,0.9,1.2,1.1,1.7c2-1.8-0.4-4.8-0.6-6.7    c1.8-0.1,9.6-0.4,6.1-3.9c1.5-0.2,2.1-1.4,3.2-2.1c1.1-0.7,2.3-1.1,3.5-1.7c2.2-1,3.9-1.4,6.6-1.5c0.2-0.8,2.8-6.8,3.1-7.1    c3-2.2,4.1,2.6,5.3,3.6s2.1-0.4,3.3,1.4c1,1.4,0.6,3.1,0.3,4.6c-0.7,3-4.6,5.6-4.1,8.7c2.9,0.5,5.1-1.5,8.1-1    c3.7,0.6,6.3,1.3,10.4,1c1.6-4.5,5,4.4,6.8,5c1.9,0.6,8.1,0.2,10.7-0.1c0.3-5.5,1.5-4.7,6.8-2.4c2.9,1.3,3.7,3.7,6.6,4.3    c1.3,0.3,2.8-0.4,4,0.3c1.1,0.7,1.1,2.4,2,3.2c3.1,3,8.1-0.9,10.1,2.3c0.7-1.9,3.8-2,5.7-0.9c3,1.8,5.9,2.6,5.3,5.7    c-0.3,1.3-1.4,4.9-3.9,6c-1.2,0.5,1.5,2.3,1.5,3.5c-0.1,3.1-3.4,1.8-5.6,3.4c-2.3,1.7-2.2,2.5-5.1,3.6c-3,1.1-5.6,1.7-6.5,5.2    c-0.7,2.7,0.1,4.4-1.5,6.8c-1.3,1.9-3.5,3.8-5.2,5.2c-0.3-4.2-0.4-8.3,1.7-12c1.6-2.9,5-4.6,5.9-7.8c-0.3,0.5-1,0.8-1.4,1.2    c-4.7-4.3-5.3,2-5.3,5.2c-2.9,1.4-5.4-1.3-8-1.7c-4.5-0.8-6.9,1-10.5,3.9c-2,1.6-3.4,2.6-2.4,5.2c0.9,2.5,1.5,1,3.1,2.2    c3,2.3,2.4,5,0.6,8.7c-1.1,2.2-3.1,5.2-5.2,6.4c-3.2,1.9-5.3,1.5-6.3,5.9c-0.4,1.6,1.8,7.7-1.2,6.1c-0.9-0.5-0.8-3.1-1.7-4.2    c-0.3-0.4-2.9-2-3.5-2.1c-1.9-0.3-4.7,1.1-4.4,3.4c4-0.3,3.8,0.7,3.8,3.9c0,2.7-0.1,6-1.4,8.4c-1.5,2.9-5,4-7.7,5    c-2.2,0.8-6,0.9-6.3,4.1c-0.3,3.1,3.6,3.3,3.1,6.7c-0.6,4.3-4.3,2.3-6.8,1.4c-3.3-1.2-3.7-1-2.2,2.7c1,2.5,3.6,3.7,3.6,6.7    c-4.7,1.3-6.5-5.4-6.6-8.8c-0.1-2.5,1-10.7-3.8-5.6c-0.6-2.1-0.3-6.5-3.2-6.3v-1.8c-3.1,0.7-5,2.6-7.9,4.6    c-0.9,0.6-3.1,1.9-3.7,2.7c-1.3,1.6-0.6,2.2-1,4.2c-0.7,3.1-2.3,5.8-5,1.9c-1.6-2.3-0.9-6.1-1.9-8.7"
   id="path312" />
	</g>
	<g
   id="g328">
		<path
   class="st5"
   d="M178.7,113.9c-1.1,0.5-0.7,1.4-1.6,2c-1,0.7-2.3,0-3.5,0.3c-0.8,0.2-1.8,0.9-2.3,1c-0.9,0.1-0.8-0.8-1.9-0.7    c-0.9,0.1-2.4,1.2-3.2,1.7c-1.2,0.8-1.9,3.2-3.1,3.2c-0.1-1.1-0.1-2.3,0.1-3.3c-3.9-1.2-4.8,1.1-2,3.6c-1.3,2.2-4.8,0.7-4.4,4.4    c-1.3,0-2.4-0.8-3.7-0.6c-0.2,0.5-0.3,1.3-0.2,1.8c0.9,0.1,1.2,0.5,1.3,1.4c-1.3,0.2-2.7-0.1-3.9-0.5c-0.1-2.1-0.7-3.8,0-5.7    c1,0.3,2.9,1.2,3.9,0.9c0.6-0.2,2.7-2,2.6-2.6c-0.2-1.1-0.5-2.6-1.4-3c-2-0.9-2-0.6-3.5-2.3c-1.7-1.8-6.1-4.4-8.6-5    c-2.5-0.6-5.6,1-7.8,2.1c-2.7,1.3-3.8,3.2-5.3,6c-1.2,2.3-1.6,4.3-2.7,6.5c-0.6,1.3-2.2,3.2-2.8,4.5c-0.7,1.3-2.2,1.6-2.9,2.5    c-1.2,1.4-1.5,4.7-1.1,6.6c0.9,3.4,2.6,0.4,5.1,1c0.3,1.4,2,2.1,2.3,3.2c0.4,1.3-0.4,2.6-0.1,3.9c1.2,0.2,2.1-0.5,3.2-0.7    c-0.2-2.7,0.8-4.1,2.6-5.9c2.4-2.5,1-3.2,0.7-6.2c-0.1-1.3,0.4-3.7,1.2-4.7c0.8-1,1.6-3.5,2.6-4.4s1.5-0.3,3.2-0.4    c0.6,4.3-6.2,5.2-3.7,10.5c1.1,2.3,8.3,0.4,7.6,3c-1.4,0.1-4.6-1-5.6-0.7c-1,0.4-2.6,3.4-2.9,4.3c-0.6,1.8-0.2,2.9-1.8,4.2    c-1.2,1-4,2.4-5.3,2.6c-1.3,0.2-3,0-3.8-1.1s0.2-3.1-0.6-4.2c-1.3-2-2.7-0.1-2.9,1.7c-0.2,1.8,0.5,2.5,1.2,3.9    c-1.9,0.8-2.6,1.4-3.6,2.9c-0.8,1.2-0.9,2.2-2.3,3.1c-2.1,1.4-5.2,2.9-7.5,3.5c0.8,0.9,4.6,3.6,4.7,4.4c0.1,1.6-3.1,2.7-4.3,2.8    c-2.1,0.1-3.6-1.1-4.4,0.9c-0.6,1.4-0.4,5.8,0.2,7.2c0.8,2.1,3.1,1.7,5,0.8c2-1,2.4-2.7,3.9-4.3c2.9-3,6.7-6.8,11.7-6    c-0.4,1.8,1,2.7,1.7,4c1,1.7,1.1,3.3,1.4,5.1c2.6,0.6,1.3-2.6,3.2-2.8c0.4-1.9-1.1-1.7-2.1-2.5c-1.8-1.3-2-3.6-3.4-4.9    c1.8-0.4,3.6,2.3,4.7,3.3c1.5,1.5,2.2,2.7,2.7,4.8c3.1-0.2,1.4,4.7,4.6,4c1.9-0.4,1.6-4-0.5-4.5c1.2-1.3,3.2-0.7,4.9-1.2    c0.6-2.3,0.3-7.4,3.5-7.9c2.1-0.3,2.1,1.6,3.3,2.1c0.7,0.3,1.9-0.3,2.6,0c0.9,0.4,0.5,1.2,1.2,1.5c1.5,0.8,3.1,0.2,4.9,0.8    c2,0.7,3.9,3.7,5.2,1c0.3-0.7-0.2-1.9,0-2.6c0.3-1.4,1.1-1.9,1-3.5c-0.2-2.2-1.6-3.6-0.4-6.1c2.8-0.1,6,0.8,8.8,0.2s2.9-2,3.5-4.3    c0.8-3.3,2.7-6.4,3.1-9.8c0.1-1.1-0.2-2.2,0-3.3c0.3-1.8,1-1.8,2.1-3.2c1.3-1.7,1.2-3.5,1.6-5.6c0.4-2.3-0.3-3.2-0.6-5.5    C183.5,120.4,183.8,111.5,178.7,113.9z"
   id="path316" />
		<path
   class="st5"
   d="M117.2,151.5c-1.3,2.9-6.2,3.6-9,4.5c2.1-1.2,2.5-3.7,2.7-6.1c0.2-2.9-2.7-3.4-1.9-6.6c0.2-0.9,1-3,2.1-3.1    c1.6-0.2,1,1.4,1.2,2.6c0.3,1.5,1,2.8,1.7,4.2c0.8,1.4,1,1.8,1.1,3.8c1,0,1.9,0.3,1.8,1.4"
   id="path318" />
		<path
   class="st5"
   d="M106.7,153.2c-3.5,0.9-1-5.7,0.4-5.9c2.3-0.3,1.6,5.4-0.7,6.1"
   id="path320" />
		<path
   class="st5"
   d="M124.3,170.5c-0.3,2.2,1.8,1.4,2.1-0.2c0.2-1.4-0.5-3.2-1.6-4c-1.7,1.2,0.1,3.3-0.2,4.9"
   id="path322" />
		<path
   class="st5"
   d="M106.5,123.9c-0.8,0-2.8-0.5-3.3-1c-0.9-0.8-0.6-1.9-1.6-2.7c2.9-0.2,6.1,0.2,6.9,3.4c-1.2,0.5-2.6,0.8-3.7,0    "
   id="path324" />
		<path
   class="st5"
   d="M171.7,111.7c-0.9-1.2-2.4-3.2-4-2.6c2.6-2.8-0.1-4.8,4.9-4.6c0.1,1.3-0.2,3,0.3,4.2c0.5,1.4,1.9,1.9,1.6,3.9    c-1,0.1-2.2,0.3-2.8-0.4"
   id="path326" />
	</g>
	<path
   class="st7"
   d="M112.9,118.2c0.2,0,0.3,0,0.5,0"
   id="path330" />
	<rect
   y="369.1"
   class="st8"
   width="277.2"
   height="30.7"
   id="rect332" />
	<rect
   x="4.6"
   y="273.3"
   class="st8"
   width="268.7"
   height="100.8"
   id="rect334" />
	
	<g
   class="st12"
   id="g386">
		<g
   id="g380">
			<radialGradient
   id="SVGID_1_"
   cx="169.5361"
   cy="320.8901"
   r="125.2696"
   gradientUnits="userSpaceOnUse">
				<stop
   offset="0"
   style="stop-color:#FFFFFF"
   id="stop338" />
				<stop
   offset="0"
   style="stop-color:#646466"
   id="stop340" />
			</radialGradient>
			<path
   class="st13"
   d="M21.5,352.5c1.8,0,3.5-0.3,5-1c1.6-0.7,2.9-1.6,4.1-2.8c1.2-1.1,2.1-2.5,2.8-4.1c0.7-1.6,1.1-3.2,1.1-5h3.9     c0,2.3-0.4,4.5-1.3,6.5c-0.9,2-2.1,3.8-3.6,5.3s-3.3,2.7-5.3,3.6c-2,0.9-4.2,1.3-6.5,1.3c-2.3,0-4.5-0.4-6.6-1.3     c-2.1-0.9-3.9-2.1-5.4-3.6s-2.7-3.3-3.6-5.3c-0.9-2-1.3-4.2-1.3-6.5v-45.4c0-2.3,0.4-4.5,1.3-6.5c0.9-2,2.1-3.8,3.6-5.3     s3.3-2.7,5.4-3.6c2.1-0.9,4.3-1.3,6.6-1.3c2.3,0,4.5,0.4,6.5,1.3c2,0.9,3.8,2,5.3,3.5s2.7,3.2,3.6,5.3c0.9,2,1.3,4.2,1.3,6.5     h-3.9c0-1.8-0.4-3.4-1.1-4.9c-0.7-1.5-1.6-2.9-2.8-4c-1.2-1.1-2.5-2.1-4.1-2.8c-1.6-0.7-3.2-1-5-1c-1.8,0-3.5,0.3-5.1,1     c-1.6,0.7-3,1.6-4.1,2.8c-1.2,1.2-2.1,2.5-2.8,4c-0.7,1.5-1.1,3.2-1.1,5v45.5c0,1.8,0.4,3.4,1.1,5s1.6,2.9,2.8,4.1     c1.2,1.2,2.6,2.1,4.1,2.8C18.1,352.2,19.8,352.5,21.5,352.5z"
   id="path343" />
			<radialGradient
   id="SVGID_2_"
   cx="169.5361"
   cy="320.8901"
   r="125.2696"
   gradientUnits="userSpaceOnUse">
				<stop
   offset="0"
   style="stop-color:#FFFFFF"
   id="stop345" />
				<stop
   offset="0"
   style="stop-color:#646466"
   id="stop347" />
			</radialGradient>
			<path
   class="st14"
   d="M63.5,356.3c-2.3,0-4.5-0.4-6.6-1.3c-2.1-0.9-3.9-2.1-5.4-3.6s-2.7-3.3-3.6-5.3c-0.9-2-1.3-4.2-1.3-6.5     v-45.4c0-2.3,0.4-4.5,1.3-6.5c0.9-2,2.1-3.8,3.6-5.3s3.3-2.7,5.4-3.6c2.1-0.9,4.3-1.3,6.6-1.3s4.5,0.4,6.5,1.3     c2,0.9,3.8,2.1,5.3,3.6s2.7,3.3,3.6,5.3c0.9,2,1.3,4.2,1.3,6.5v45.4c0,2.3-0.4,4.5-1.3,6.5c-0.9,2-2.1,3.8-3.6,5.3     s-3.3,2.7-5.3,3.6C68,355.9,65.8,356.3,63.5,356.3z M63.5,281.4c-1.8,0-3.5,0.3-5.1,1c-1.6,0.7-3,1.6-4.1,2.8     c-1.2,1.2-2.1,2.5-2.8,4c-0.7,1.5-1.1,3.2-1.1,5v45.5c0,1.8,0.4,3.4,1.1,5s1.6,2.9,2.8,4.1c1.2,1.2,2.6,2.1,4.1,2.8     c1.6,0.7,3.3,1,5.1,1c1.8,0,3.5-0.3,5-1c1.6-0.7,2.9-1.6,4.1-2.8c1.2-1.2,2.1-2.5,2.8-4.1s1.1-3.2,1.1-5v-45.5     c0-1.8-0.4-3.4-1.1-5c-0.7-1.5-1.6-2.9-2.8-4c-1.2-1.2-2.5-2.1-4.1-2.8C67,281.7,65.3,281.4,63.5,281.4z"
   id="path350" />
			<radialGradient
   id="SVGID_3_"
   cx="169.5361"
   cy="320.8901"
   r="125.2696"
   gradientUnits="userSpaceOnUse">
				<stop
   offset="0"
   style="stop-color:#FFFFFF"
   id="stop352" />
				<stop
   offset="0"
   style="stop-color:#646466"
   id="stop354" />
			</radialGradient>
			<path
   class="st15"
   d="M106.3,314.6c1.9,1.5,3.9,3.1,5.8,4.8c1.9,1.7,3.6,3.5,5.1,5.4c1.5,2,2.7,4.1,3.7,6.6     c0.9,2.4,1.4,5.2,1.4,8.2c0,2.3-0.4,4.5-1.3,6.5c-0.9,2-2.1,3.8-3.6,5.3c-1.5,1.5-3.3,2.7-5.3,3.6c-2,0.9-4.2,1.3-6.5,1.3     s-4.5-0.4-6.6-1.3c-2.1-0.9-3.9-2.1-5.4-3.6s-2.7-3.3-3.6-5.3c-0.9-2-1.3-4.2-1.3-6.5h3.9c0,1.8,0.4,3.4,1.1,5     c0.7,1.6,1.6,2.9,2.8,4.1c1.2,1.2,2.6,2.1,4.1,2.8c1.6,0.7,3.3,1,5.1,1c1.8,0,3.5-0.3,5-1c1.6-0.7,2.9-1.6,4.1-2.8     c1.2-1.1,2.1-2.5,2.8-4.1c0.7-1.6,1.1-3.2,1.1-5c0-2.6-0.4-4.9-1.2-7s-1.9-4-3.3-5.7c-1.4-1.7-2.9-3.3-4.7-4.8     c-1.8-1.5-3.6-3-5.4-4.4c-1.9-1.5-3.7-3-5.6-4.5c-1.8-1.6-3.5-3.3-4.9-5.1c-1.4-1.8-2.6-3.9-3.5-6.1c-0.9-2.2-1.3-4.8-1.3-7.7     c0-2.3,0.4-4.5,1.3-6.5c0.9-2,2.1-3.8,3.6-5.3s3.3-2.7,5.4-3.6c2.1-0.9,4.3-1.3,6.6-1.3s4.5,0.4,6.5,1.3c2,0.9,3.8,2,5.3,3.5     s2.7,3.2,3.6,5.3c0.9,2,1.3,4.2,1.3,6.5h-3.9c0-1.8-0.4-3.4-1.1-4.9c-0.7-1.5-1.6-2.9-2.8-4c-1.2-1.1-2.5-2.1-4.1-2.8     c-1.6-0.7-3.2-1-5-1c-1.8,0-3.5,0.3-5.1,1c-1.6,0.7-3,1.6-4.1,2.8c-1.2,1.2-2.1,2.5-2.8,4c-0.7,1.5-1.1,3.2-1.1,5     c0,2.5,0.4,4.6,1.2,6.5c0.8,1.9,1.8,3.6,3.1,5.2c1.3,1.6,2.8,3.1,4.4,4.5C102.8,311.9,104.5,313.3,106.3,314.6z"
   id="path357" />
			<radialGradient
   id="SVGID_4_"
   cx="169.5361"
   cy="320.8901"
   r="125.2696"
   gradientUnits="userSpaceOnUse">
				<stop
   offset="0"
   style="stop-color:#FFFFFF"
   id="stop359" />
				<stop
   offset="0"
   style="stop-color:#646466"
   id="stop361" />
			</radialGradient>
			<path
   class="st16"
   d="M177.4,278v77.7h-3.9v-66.9L154,341.6l-19.6-52.8v66.9h-3.9V278h4l19.5,52.4l19.4-52.4H177.4z"
   id="path364" />
			<radialGradient
   id="SVGID_5_"
   cx="169.5361"
   cy="320.8901"
   r="125.2696"
   gradientUnits="userSpaceOnUse">
				<stop
   offset="0"
   style="stop-color:#FFFFFF"
   id="stop366" />
				<stop
   offset="0"
   style="stop-color:#646466"
   id="stop368" />
			</radialGradient>
			<path
   class="st17"
   d="M202.5,356.3c-2.3,0-4.5-0.4-6.6-1.3c-2.1-0.9-3.9-2.1-5.4-3.6s-2.7-3.3-3.6-5.3c-0.9-2-1.3-4.2-1.3-6.5     v-45.4c0-2.3,0.4-4.5,1.3-6.5c0.9-2,2.1-3.8,3.6-5.3s3.3-2.7,5.4-3.6c2.1-0.9,4.3-1.3,6.6-1.3s4.5,0.4,6.5,1.3     c2,0.9,3.8,2.1,5.3,3.6s2.7,3.3,3.6,5.3c0.9,2,1.3,4.2,1.3,6.5v45.4c0,2.3-0.4,4.5-1.3,6.5c-0.9,2-2.1,3.8-3.6,5.3     s-3.3,2.7-5.3,3.6C207,355.9,204.8,356.3,202.5,356.3z M202.5,281.4c-1.8,0-3.5,0.3-5.1,1c-1.6,0.7-3,1.6-4.1,2.8     c-1.2,1.2-2.1,2.5-2.8,4c-0.7,1.5-1.1,3.2-1.1,5v45.5c0,1.8,0.4,3.4,1.1,5s1.6,2.9,2.8,4.1c1.2,1.2,2.6,2.1,4.1,2.8     c1.6,0.7,3.3,1,5.1,1c1.8,0,3.5-0.3,5-1c1.6-0.7,2.9-1.6,4.1-2.8c1.2-1.2,2.1-2.5,2.8-4.1s1.1-3.2,1.1-5v-45.5     c0-1.8-0.4-3.4-1.1-5c-0.7-1.5-1.6-2.9-2.8-4c-1.2-1.2-2.5-2.1-4.1-2.8C206,281.7,204.3,281.4,202.5,281.4z"
   id="path371" />
			<radialGradient
   id="SVGID_6_"
   cx="169.5361"
   cy="320.8901"
   r="125.2696"
   gradientUnits="userSpaceOnUse">
				<stop
   offset="0"
   style="stop-color:#FFFFFF"
   id="stop373" />
				<stop
   offset="0"
   style="stop-color:#646466"
   id="stop375" />
			</radialGradient>
			<path
   class="st18"
   d="M245.3,314.6c1.9,1.5,3.9,3.1,5.8,4.8c1.9,1.7,3.6,3.5,5.1,5.4c1.5,2,2.7,4.1,3.7,6.6     c0.9,2.4,1.4,5.2,1.4,8.2c0,2.3-0.4,4.5-1.3,6.5c-0.9,2-2.1,3.8-3.6,5.3c-1.5,1.5-3.3,2.7-5.3,3.6c-2,0.9-4.2,1.3-6.5,1.3     s-4.5-0.4-6.6-1.3c-2.1-0.9-3.9-2.1-5.4-3.6s-2.7-3.3-3.6-5.3c-0.9-2-1.3-4.2-1.3-6.5h3.9c0,1.8,0.4,3.4,1.1,5     c0.7,1.6,1.6,2.9,2.8,4.1c1.2,1.2,2.6,2.1,4.1,2.8c1.6,0.7,3.3,1,5.1,1c1.8,0,3.5-0.3,5-1c1.6-0.7,2.9-1.6,4.1-2.8     c1.2-1.1,2.1-2.5,2.8-4.1c0.7-1.6,1.1-3.2,1.1-5c0-2.6-0.4-4.9-1.2-7s-1.9-4-3.3-5.7c-1.4-1.7-2.9-3.3-4.7-4.8     c-1.8-1.5-3.6-3-5.4-4.4c-1.9-1.5-3.7-3-5.6-4.5c-1.8-1.6-3.5-3.3-4.9-5.1c-1.4-1.8-2.6-3.9-3.5-6.1c-0.9-2.2-1.3-4.8-1.3-7.7     c0-2.3,0.4-4.5,1.3-6.5c0.9-2,2.1-3.8,3.6-5.3s3.3-2.7,5.4-3.6c2.1-0.9,4.3-1.3,6.6-1.3s4.5,0.4,6.5,1.3c2,0.9,3.8,2,5.3,3.5     s2.7,3.2,3.6,5.3c0.9,2,1.3,4.2,1.3,6.5h-3.9c0-1.8-0.4-3.4-1.1-4.9c-0.7-1.5-1.6-2.9-2.8-4c-1.2-1.1-2.5-2.1-4.1-2.8     c-1.6-0.7-3.2-1-5-1c-1.8,0-3.5,0.3-5.1,1c-1.6,0.7-3,1.6-4.1,2.8c-1.2,1.2-2.1,2.5-2.8,4c-0.7,1.5-1.1,3.2-1.1,5     c0,2.5,0.4,4.6,1.2,6.5c0.8,1.9,1.8,3.6,3.1,5.2c1.3,1.6,2.8,3.1,4.4,4.5C241.7,311.9,243.5,313.3,245.3,314.6z"
   id="path378" />
		</g>
		
		
	</g>
</g>
</svg>
